<svg width="512" height="512" viewBox="10 10 492 492" fill="none" xmlns="http://www.w3.org/2000/svg">
  <defs>
    <linearGradient id="bg" x1="64" y1="48" x2="448" y2="464" gradientUnits="userSpaceOnUse">
      <stop stop-color="#0F3D56"/>
      <stop offset="1" stop-color="#1C6E8C"/>
    </linearGradient>
    <linearGradient id="page" x1="150" y1="106" x2="356" y2="388" gradientUnits="userSpaceOnUse">
      <stop stop-color="#FFFFFF"/>
      <stop offset="1" stop-color="#DCEAF1"/>
    </linearGradient>
    <filter id="shadow" x="86" y="76" width="340" height="380" filterUnits="userSpaceOnUse" color-interpolation-filters="sRGB">
      <feFlood flood-opacity="0" result="BackgroundImageFix"/>
      <feColorMatrix in="SourceAlpha" type="matrix" values="0 0 0 0 0 0 0 0 0 0 0 0 0 0 0 0 0 0 127 0" result="hardAlpha"/>
      <feOffset dy="18"/>
      <feGaussianBlur stdDeviation="18"/>
      <feColorMatrix type="matrix" values="0 0 0 0 0.016 0 0 0 0 0.114 0 0 0 0 0.161 0 0 0 0.24 0"/>
      <feBlend mode="normal" in2="BackgroundImageFix" result="effect1_dropShadow_1_2"/>
      <feBlend mode="normal" in="SourceGraphic" in2="effect1_dropShadow_1_2" result="shape"/>
    </filter>
  </defs>
  <rect x="10" y="10" width="492" height="492" rx="124" fill="url(#bg)"/>
  <circle cx="408" cy="116" r="26" fill="#F6C85F" fill-opacity="0.18"/>
  <circle cx="120" cy="394" r="38" fill="#FFFFFF" fill-opacity="0.08"/>
  <g filter="url(#shadow)">
    <path d="M124 88C124 73.6406 135.641 62 150 62H301.02C307.917 62 314.532 64.7398 319.408 69.6152L372.385 122.592C377.26 127.468 380 134.083 380 140.98V393C380 407.359 368.359 419 354 419H150C135.641 419 124 407.359 124 393V88Z" fill="url(#page)"/>
    <path d="M306 62V117C306 131.359 317.641 143 332 143H387" fill="#B7CFDA"/>
    <path d="M306 62V117C306 131.359 317.641 143 332 143H387" stroke="#B7CFDA" stroke-width="18" stroke-linecap="round" stroke-linejoin="round"/>
    <path d="M194 164L171 266" stroke="#0F3D56" stroke-width="26" stroke-linecap="round"/>
    <path d="M258 164L235 266" stroke="#0F3D56" stroke-width="26" stroke-linecap="round"/>
    <path d="M154 193H278" stroke="#0F3D56" stroke-width="26" stroke-linecap="round"/>
    <path d="M140 237H264" stroke="#0F3D56" stroke-width="26" stroke-linecap="round"/>
    <path d="M164 320H315" stroke="#6B8793" stroke-width="18" stroke-linecap="round"/>
    <path d="M164 358H280" stroke="#6B8793" stroke-width="18" stroke-linecap="round"/>
  </g>
  <g>
    <circle cx="384" cy="358" r="98" fill="#F05D5E"/>
    <circle cx="384" cy="358" r="81" fill="#FF7A59"/>
    <rect x="343" y="309" width="82" height="99" rx="21" fill="white" fill-opacity="0.2"/>
    <rect x="357" y="358" width="16" height="28" rx="8" fill="white"/>
    <rect x="376" y="340" width="16" height="46" rx="8" fill="white"/>
    <rect x="395" y="320" width="16" height="66" rx="8" fill="white"/>
    <path d="M350 333H419" stroke="white" stroke-width="9" stroke-linecap="round" stroke-opacity="0.72"/>
  </g>
</svg>
